HIERARCHY
ROOT Hips
{
	OFFSET 0.00000 0.00000 0.00000
	CHANNELS 6 Xposition Yposition Zposition Zrotation Yrotation Xrotation 
	JOINT LHipJoint
	{
		OFFSET 0 0 0
		CHANNELS 3 Zrotation Yrotation Xrotation
		JOINT LeftUpLeg
		{
			OFFSET 1.60223 -1.58443 0.78595
			CHANNELS 3 Zrotation Yrotation Xrotation
			JOINT LeftLeg
			{
				OFFSET 2.21690 -6.09089 0.00000
				CHANNELS 3 Zrotation Yrotation Xrotation
				JOINT LeftFoot
				{
					OFFSET 2.34805 -6.45122 0.00000
					CHANNELS 3 Zrotation Yrotation Xrotation
					JOINT LeftToeBase
					{
						OFFSET 0.35452 -0.97402 1.38549
						CHANNELS 3 Zrotation Yrotation Xrotation
						End Site
						{
							OFFSET 0.00000 -0.00000 0.82816
						}
					}
				}
			}
		}
	}
	JOINT RHipJoint
	{
		OFFSET 0 0 0
		CHANNELS 3 Zrotation Yrotation Xrotation
		JOINT RightUpLeg
		{
			OFFSET -1.56524 -1.58443 0.78595
			CHANNELS 3 Zrotation Yrotation Xrotation
			JOINT RightLeg
			{
				OFFSET -2.15558 -5.92241 0.00000
				CHANNELS 3 Zrotation Yrotation Xrotation
				JOINT RightFoot
				{
					OFFSET -2.35077 -6.45870 0.00000
					CHANNELS 3 Zrotation Yrotation Xrotation
					JOINT RightToeBase
					{
						OFFSET -0.26910 -0.73935 1.33295
						CHANNELS 3 Zrotation Yrotation Xrotation
						End Site
						{
							OFFSET -0.00000 -0.00000 0.75962
						}
					}
				}
			}
		}
	}
	JOINT LowerBack
	{
		OFFSET 0 0 0
		CHANNELS 3 Zrotation Yrotation Xrotation
		JOINT Spine
		{
			OFFSET -0.05489 1.97104 -0.02993
			CHANNELS 3 Zrotation Yrotation Xrotation
			JOINT Spine1
			{
				OFFSET -0.00702 1.94230 0.13626
				CHANNELS 3 Zrotation Yrotation Xrotation
				JOINT Neck
				{
					OFFSET 0 0 0
					CHANNELS 3 Zrotation Yrotation Xrotation
					JOINT Neck1
					{
						OFFSET -0.07858 1.62869 -0.02510
						CHANNELS 3 Zrotation Yrotation Xrotation
						JOINT Head
						{
							OFFSET 0.13978 1.59213 -0.29859
							CHANNELS 3 Zrotation Yrotation Xrotation
							End Site
							{
								OFFSET 0.05353 1.64420 -0.10000
							}
						}
					}
				}
				JOINT LeftShoulder
				{
					OFFSET 0 0 0
					CHANNELS 3 Zrotation Yrotation Xrotation
					JOINT LeftArm
					{
						OFFSET 3.48263 1.15278 0.52941
						CHANNELS 3 Zrotation Yrotation Xrotation
						JOINT LeftForeArm
						{
							OFFSET 4.59207 -0.00000 -0.00000
							CHANNELS 3 Zrotation Yrotation Xrotation
							JOINT LeftHand
							{
								OFFSET 2.98109 -0.00000 -0.00000
								CHANNELS 3 Zrotation Yrotation Xrotation
								JOINT LeftFingerBase
								{
									OFFSET 0 0 0
									CHANNELS 3 Zrotation Yrotation Xrotation
									JOINT LeftHandIndex1
									{
										OFFSET 0.48020 -0.00000 -0.00000
										CHANNELS 3 Zrotation Yrotation Xrotation
										End Site
										{
											OFFSET 0.38715 -0.00000 -0.00000
										}
									}
								}
								JOINT LThumb
								{
									OFFSET 0 0 0
									CHANNELS 3 Zrotation Yrotation Xrotation
									End Site
									{
										OFFSET 0.39306 -0.00000 0.39306
									}
								}
							}
						}
					}
				}
				JOINT RightShoulder
				{
					OFFSET 0 0 0
					CHANNELS 3 Zrotation Yrotation Xrotation
					JOINT RightArm
					{
						OFFSET -3.52496 1.12722 0.24548
						CHANNELS 3 Zrotation Yrotation Xrotation
						JOINT RightForeArm
						{
							OFFSET -4.76508 -0.00000 -0.00000
							CHANNELS 3 Zrotation Yrotation Xrotation
							JOINT RightHand
							{
								OFFSET -2.78902 -0.00000 -0.00000
								CHANNELS 3 Zrotation Yrotation Xrotation
								JOINT RightFingerBase
								{
									OFFSET 0 0 0
									CHANNELS 3 Zrotation Yrotation Xrotation
									JOINT RightHandIndex1
									{
										OFFSET -0.72130 -0.00000 -0.00000
										CHANNELS 3 Zrotation Yrotation Xrotation
										End Site
										{
											OFFSET -0.58153 -0.00000 -0.00000
										}
									}
								}
								JOINT RThumb
								{
									OFFSET 0 0 0
									CHANNELS 3 Zrotation Yrotation Xrotation
									End Site
									{
										OFFSET -0.59041 -0.00000 0.59041
									}
								}
							}
						}
					}
				}
			}
		}
	}
}
MOTION
Frames: 12
Frame Time: 0.00947867
0.00 0.00 0.00 -65.5461 -80.9510 -291.3750 0.0000 0.0000 0.0000 -3.8306 -15.2136 -37.7580 6.4784 14.8764 46.8728 0.6858 5.9815 -18.9477 2.3467 9.5537 27.5431 0.0000 0.0000 0.0000 30.6643 -9.0621 6.3295 -0.3524 -3.8140 10.5539 -0.8156 0.4748 -16.9148 -2.7977 10.3602 -30.1512 9.0345 7.0820 5.4849 -0.3283 10.2805 -5.4286 -6.3703 4.5263 -7.1987 -15.9652 -10.8741 4.2240 16.4365 -16.0309 4.2274 7.0202 -8.1819 3.1930 -0.0000 0.0000 0.0000 -94.4848 17.1655 30.5798 130.2610 -52.8897 -94.0341 -0.0000 -0.0000 2.7545 13.9146 40.7611 9.1882 -7.1250 0.0000 -0.0000 -32.0165 69.1090 -19.1919 -0.0000 0.0000 0.0000 95.9443 53.2627 22.0862 -40.3350 48.2671 -18.6889 0.0000 -0.0000 -5.1739 -0.6592 37.3142 -0.3996 7.1250 -0.0000 -0.0000 17.5405 5.8281 20.1556
0.00 0.00 0.00 -22.7770 -80.6529 -333.2030 0.0000 0.0000 0.0000 -12.9399 -13.8507 -32.2045 4.3889 12.6607 38.1112 1.6585 4.5288 -26.3107 1.9548 -8.7712 -25.0822 0.0000 0.0000 0.0000 24.9535 -9.2179 8.6272 -0.8804 -5.9817 16.7312 0.0067 -7.5712 -10.6493 -3.6251 11.6441 -34.4844 6.5154 7.0994 2.2497 -1.9763 9.7306 -6.4389 -6.3238 4.3617 -6.6045 -12.9635 -12.4416 4.6245 12.3779 -17.8418 4.6448 5.2252 -9.0692 2.9080 0.0000 -0.0000 0.0000 -93.5361 18.3842 36.9081 128.4381 -53.6063 -92.5735 -0.0000 -0.0000 1.8596 15.4908 40.9940 10.3042 -7.1250 0.0000 -0.0000 -30.6554 69.8055 -18.7857 0.0000 -0.0000 0.0000 74.3540 62.6958 8.8802 -36.5146 45.8638 -15.8907 0.0000 -0.0000 -1.1487 2.2287 28.6528 1.0691 7.1250 -0.0000 -0.0000 19.0523 -2.6126 19.2767
0.00 0.00 0.00 -1.6327 -77.3969 -354.2690 0.0000 0.0000 0.0000 -18.8802 -13.6279 -28.2431 4.1981 12.4195 37.2326 0.9760 -1.9047 -18.1280 0.4111 4.1156 11.4022 0.0000 0.0000 0.0000 21.3559 -8.9288 -2.2063 -4.4175 -12.6962 38.2415 0.5955 -13.8500 -1.9114 -1.3823 7.4395 -21.0240 5.0742 6.7319 1.5899 -3.3983 9.0218 -6.6547 -6.9378 4.0468 -6.5379 -12.8516 -13.0014 4.8508 11.8526 -18.6771 5.5003 4.9766 -9.4953 3.1741 -0.0000 0.0000 0.0000 -93.0453 15.6255 44.4540 124.5656 -54.9652 -89.4286 -0.0000 -0.0000 3.0410 14.2492 39.1478 9.1085 -7.1250 0.0000 -0.0000 -29.1232 67.8871 -16.5598 -0.0000 0.0000 0.0000 55.3785 63.8700 -4.3301 -35.1850 44.9438 -14.9439 0.0000 0.0000 0.9225 5.5822 22.5733 2.1486 7.1250 -0.0000 -0.0000 21.2854 -8.4685 19.3421
0.00 0.00 0.00 22.9355 -73.3603 -378.9950 0.0000 0.0000 0.0000 -28.1576 -10.6493 -23.6612 3.8085 11.9012 35.3832 0.8911 -6.3951 -16.8372 0.7552 5.5504 15.4854 0.0000 0.0000 0.0000 13.3158 -9.3283 -14.8610 -10.0343 -17.4291 59.6031 0.6202 -15.2709 1.3853 -0.6789 5.2685 -14.6759 -1.1290 6.0362 2.8550 -5.2559 7.5453 -6.1990 -5.5853 3.5564 -7.5329 -13.0037 -12.8135 4.9124 11.6665 -18.3846 5.2346 4.9806 -9.3548 3.0448 0.0000 0.0000 0.0000 -93.1455 12.8255 50.0923 123.1277 -55.4172 -88.2480 -0.0000 -0.0000 4.1081 13.8806 38.1389 8.6770 -7.1250 0.0000 -0.0000 -28.1110 66.9239 -15.3409 0.0000 0.0000 0.0000 37.7322 65.0770 -15.5911 -33.5469 43.7462 -13.7988 0.0000 0.0000 1.9403 10.4614 20.2393 3.6548 7.1250 -0.0000 -0.0000 24.3393 -10.6620 21.5105
0.00 0.00 0.00 42.8478 -69.7906 -398.9100 0.0000 0.0000 0.0000 -37.5082 -2.2209 -11.7436 2.5564 9.9397 28.7817 1.0549 -9.1800 -18.4900 1.3612 7.3846 20.8600 0.0000 0.0000 0.0000 4.3051 2.2756 -38.4940 -12.7906 -18.7053 68.4739 -0.1895 -0.4949 -8.4175 -1.8012 8.4391 -24.0560 -5.8947 5.4407 6.3046 -8.2011 5.6710 -6.2081 -6.4126 2.6949 -9.9765 -11.9634 -11.0172 4.3581 10.5298 -15.9489 7.2776 4.5976 -8.1331 3.2639 0.0000 0.0000 0.0000 -91.3103 7.5682 48.9932 119.1318 -56.5369 -84.9355 -0.0000 -0.0000 8.7332 11.8570 36.2450 7.0760 -7.1250 0.0000 -0.0000 -27.9273 64.7239 -13.8332 0.0000 0.0000 0.0000 6.1671 68.7272 -37.2162 -39.9341 48.0308 -18.3902 0.0000 -0.0000 -20.2035 16.8156 19.9466 5.8863 7.1250 -0.0000 -0.0000 27.9153 -10.6995 25.5873
0.00 0.00 0.00 41.9846 -68.0942 -396.8180 0.0000 0.0000 0.0000 -38.2910 1.7207 -5.7257 1.5371 7.8269 22.1896 0.8149 -10.4363 -16.6262 1.6709 8.1441 23.1528 0.0000 0.0000 0.0000 0.9547 5.4923 -40.8237 -6.9514 -15.2908 48.6901 -0.5111 -1.6985 -14.2275 -2.0406 8.9501 -25.6395 -5.0155 4.0381 6.0511 -9.2527 3.6605 -7.0222 -7.8454 1.5537 -10.7415 -12.4733 -9.5616 4.2898 11.4425 -14.2804 9.2406 5.0218 -7.3212 3.7652 -0.0000 0.0000 0.0000 -87.0576 4.7360 40.0524 110.6419 -58.3272 -77.7760 -0.0000 -0.0000 11.5363 15.0467 34.1291 8.5770 -7.1250 0.0000 -0.0000 -22.1561 63.7130 -10.3037 -0.0000 0.0000 0.0000 -10.9784 69.0481 -50.4446 -51.5983 53.6201 -27.4558 0.0000 -0.0000 -38.1620 21.4327 21.9174 8.3362 7.1250 -0.0000 -0.0000 29.9950 -8.5154 29.7810
0.00 0.00 0.00 36.9697 -67.3877 -391.9930 0.0000 0.0000 0.0000 -37.1501 1.9489 2.3785 0.9513 6.2111 17.3983 0.9946 -5.3806 -17.8178 1.5752 7.9186 22.4671 0.0000 0.0000 0.0000 -0.5078 6.6766 -38.1645 -3.1696 -10.9647 32.1608 -0.0647 -7.0677 -11.4653 -2.4919 9.8232 -28.4060 -2.1069 3.0386 6.0397 -9.8629 2.5087 -7.6385 -10.1210 0.6795 -11.3854 -12.0074 -8.5267 5.0455 11.4216 -13.0891 10.4259 5.0520 -6.7637 3.8127 0.0000 -0.0000 0.0000 -81.5286 0.6274 27.5177 92.6408 -59.9736 -62.2868 -0.0000 -0.0000 16.6499 24.2748 29.5639 12.5448 -7.1250 0.0000 -0.0000 -8.0977 61.6926 -3.3014 0.0000 -0.0000 0.0000 -25.7959 65.3556 -61.3840 -72.1917 58.7671 -44.6414 0.0000 -0.0000 -50.2295 18.9450 25.9617 8.5457 7.1250 -0.0000 -0.0000 28.1803 -5.0326 29.5243
0.00 0.00 0.00 37.2769 -69.5920 -389.9390 0.0000 0.0000 0.0000 -35.0329 1.1569 5.3762 0.9795 6.3001 17.6575 0.9032 -2.4131 -17.3074 0.6864 5.2969 14.7574 0.0000 0.0000 0.0000 1.6565 8.2075 -39.5661 -2.7134 -10.2160 29.6790 0.1786 -7.7275 -4.9400 -1.3160 7.2660 -20.5058 -1.1466 3.4877 3.2505 -10.4712 3.0528 -9.8222 -11.4573 0.6866 -12.0578 -10.7792 -7.6433 4.9635 10.8177 -12.0863 12.9233 4.7040 -6.2634 4.3434 -0.0000 0.0000 0.0000 -75.5375 -1.0097 11.8094 74.0652 -59.0185 -46.2455 -0.0000 -0.0000 19.4473 34.3707 26.7915 17.1342 -7.1250 0.0000 -0.0000 5.2703 61.3601 2.1027 -0.0000 0.0000 0.0000 -34.5028 60.5089 -68.4426 -97.0281 59.8125 -66.0826 0.0000 -0.0000 -57.4084 17.6655 30.8010 9.2622 7.1250 -0.0000 -0.0000 27.0081 -0.6557 30.3070
0.00 0.00 0.00 42.1558 -73.7830 -393.0410 0.0000 0.0000 0.0000 -33.4648 0.1297 3.9175 1.8465 8.5387 24.3628 0.8382 0.8669 -17.6327 0.3325 3.7057 10.2501 0.0000 0.0000 0.0000 6.0007 10.5138 -39.9997 -3.3122 -11.1841 32.9033 0.0187 -5.4357 -7.1529 -0.8379 5.8391 -16.3182 -1.2467 4.4846 1.3295 -10.4677 4.2300 -11.8128 -11.5654 1.1193 -13.0151 -10.6490 -6.4386 4.6375 11.6373 -10.7605 14.7562 4.9984 -5.5887 4.8269 0.0000 0.0000 0.0000 -70.4019 -0.7486 -1.1941 63.0497 -57.0693 -36.8900 -0.0000 -0.0000 20.2572 38.6321 24.2280 18.1579 -7.1250 0.0000 -0.0000 11.0098 59.5864 3.9505 0.0000 0.0000 0.0000 -37.8200 58.5606 -72.4442 -114.3162 57.6435 -80.8918 0.0000 -0.0000 -60.5420 16.6488 33.7367 9.4297 7.1250 -0.0000 -0.0000 26.2597 2.0113 30.5284
0.00 0.00 0.00 45.4265 -80.2878 -396.8270 0.0000 0.0000 0.0000 -29.0963 1.1152 -2.7172 4.7874 13.1403 39.8959 0.1489 3.9649 -9.8421 0.4727 4.4094 12.2315 0.0000 0.0000 0.0000 12.2559 15.4361 -36.7888 -3.6390 -11.6639 34.5530 0.0344 -6.1870 -7.8284 -0.0297 1.1123 -3.0578 1.4528 5.0795 2.5380 -9.4077 5.2877 -13.0239 -12.3229 1.2388 -14.8839 -9.2012 -5.1021 3.2558 11.0041 -8.8542 15.9870 4.6175 -4.5585 5.1158 -0.0000 0.0000 0.0000 -65.3559 2.0518 -15.9260 54.9724 -54.8141 -30.1934 -0.0000 -0.0000 20.2743 43.0100 22.7613 19.8450 -7.1250 0.0000 -0.0000 16.5848 59.0515 5.7943 -0.0000 0.0000 0.0000 -38.1137 58.2703 -74.4450 -130.4502 52.8123 -94.1849 0.0000 -0.0000 -60.7938 12.9902 37.1863 7.9376 7.1250 -0.0000 -0.0000 24.3006 5.1282 29.0137
0.00 0.00 0.00 25.0676 -86.2683 -378.0280 0.0000 0.0000 0.0000 -22.2419 2.0380 -13.0009 10.2519 17.5491 60.3269 -0.1781 7.9656 0.0672 1.3770 7.4258 20.9832 0.0000 0.0000 0.0000 20.6095 15.7083 -31.8936 -3.5429 -11.5259 34.0749 -0.2310 -1.5581 -9.7873 -0.2562 3.2569 -8.9949 5.1488 4.2735 5.0082 -6.8323 5.0848 -13.1792 -11.7146 0.7943 -16.6429 -5.7419 -3.1604 1.8879 7.9696 -5.6223 15.5254 3.2047 -2.8640 4.6988 0.0000 0.0000 0.0000 -62.7360 8.9757 -30.6528 48.8701 -52.5295 -25.2746 -0.0000 -0.0000 19.1057 45.3483 21.8957 20.6805 -7.1250 0.0000 -0.0000 19.5199 58.6635 6.6827 0.0000 0.0000 0.0000 -38.6350 59.3023 -75.7669 -141.6286 47.0749 -102.7630 0.0000 -0.0000 -56.9536 7.1850 43.3005 4.9414 7.1250 -0.0000 -0.0000 21.4973 10.9727 26.9666
0.00 0.00 0.00 -75.9357 -85.1119 -277.8270 0.0000 0.0000 0.0000 -12.6344 -0.9182 -29.0148 17.7577 19.8790 83.4313 -0.0417 7.3109 4.1035 1.6982 8.2068 23.3441 0.0000 0.0000 0.0000 30.1358 14.1330 -26.4628 -3.0598 -10.7912 31.5788 -0.3821 0.3460 -11.5611 -0.0602 -1.5834 4.3557 6.4639 2.1093 6.0202 -1.8341 3.1583 -11.9032 -6.2700 0.3288 -16.3172 -2.0233 -0.2976 -0.4791 3.1146 -0.9212 13.3578 1.3676 -0.5169 4.5269 0.0000 -0.0000 0.0000 -64.0255 21.8238 -43.8734 37.5757 -46.5662 -16.6568 -0.0000 -0.0000 17.1066 47.1040 22.5585 22.4352 -7.1250 0.0000 -0.0000 22.1230 59.9918 8.3372 0.0000 -0.0000 0.0000 -36.3929 63.2529 -73.1154 -150.3125 40.6240 -108.7944 0.0000 -0.0000 -48.3650 -3.6849 52.8729 -2.9395 7.1250 -0.0000 -0.0000 17.5425 20.9447 23.5063
